<svg width="100" height="100" viewBox="0 0 100 100" fill="none" xmlns="http://www.w3.org/2000/svg">
<rect width="100" height="100" fill="white"/>
<path d="M84.0847 23.2653C79.1059 17.4765 72.6096 13.1929 65.3275 10.8972C58.0454 8.60142 50.267 8.38474 42.8684 10.2715C35.4698 12.1583 28.7451 16.0736 23.4518 21.5764C18.1585 27.0791 14.5069 33.9506 12.9085 41.4168C11.3101 48.883 11.8282 56.6472 14.4047 63.8347C16.9811 71.0223 21.5134 77.3476 27.491 82.0981C33.4686 86.8486 40.6539 89.8356 48.2376 90.7225C55.8213 91.6094 63.502 90.361 70.4144 87.1179L67.8023 81.5502C61.9267 84.3068 55.3981 85.368 48.952 84.6141C42.5058 83.8602 36.3983 81.3213 31.3173 77.2834C26.2364 73.2455 22.3839 67.8689 20.194 61.7595C18.004 55.6501 17.5635 49.0505 18.9222 42.7042C20.2809 36.358 23.3847 30.5172 27.884 25.8399C32.3833 21.1626 38.0993 17.8346 44.3881 16.2308C50.6769 14.627 57.2886 14.8112 63.4784 16.7626C69.6681 18.714 75.19 22.355 79.422 27.2755L84.0847 23.2653Z" fill="#0A0038"/>
<path d="M65 79.5556V57H84V85H81.625V59.3333H67.375V69.4444V79.5556H65Z" fill="#0A0038" stroke="#0A0038"/>
<path d="M69.0355 54.0355C68.3363 54.7348 67.4454 55.211 66.4755 55.4039C65.5055 55.5969 64.5002 55.4978 63.5866 55.1194C62.673 54.741 61.8921 54.1001 61.3427 53.2779C60.7932 52.4556 60.5 51.4889 60.5 50.5C60.5 49.5111 60.7932 48.5444 61.3427 47.7221C61.8921 46.8999 62.673 46.259 63.5866 45.8806C64.5002 45.5022 65.5055 45.4031 66.4755 45.5961C67.4454 45.789 68.3363 46.2652 69.0355 46.9645L68.2249 47.7751C67.686 47.2361 66.9993 46.8691 66.2518 46.7204C65.5043 46.5717 64.7294 46.648 64.0253 46.9397C63.3211 47.2314 62.7193 47.7253 62.2958 48.359C61.8724 48.9928 61.6464 49.7378 61.6464 50.5C61.6464 51.2622 61.8724 52.0072 62.2958 52.641C62.7193 53.2747 63.3211 53.7686 64.0253 54.0603C64.7294 54.352 65.5043 54.4283 66.2518 54.2796C66.9993 54.1309 67.686 53.7639 68.2249 53.2249L69.0355 54.0355Z" fill="#0A0038"/>
<rect x="75" y="48" width="1" height="7" fill="#0A0038"/>
<rect x="85" y="48" width="1" height="7" fill="#0A0038"/>
<rect x="70" y="48" width="1" height="7" fill="#0A0038"/>
<rect x="70" y="51" width="-1" height="5" rx="-0.5" transform="rotate(-90 70 51)" fill="#0A0038"/>
<path d="M77 55L78.3081 51.9479M83 55L81.6801 51.9202M81.6801 51.9202L80 48L78.3081 51.9479M81.6801 51.9202L78.3081 51.9479" stroke="#0A0038"/>
<rect x="83" y="48" width="-1" height="5" rx="-0.5" transform="rotate(-90 83 48)" fill="#0A0038"/>
</svg>
