<svg width="76" height="82" viewBox="0 0 76 82" fill="none" xmlns="http://www.w3.org/2000/svg">
<path d="M72.0847 14.2653C67.1059 8.47647 60.6096 4.19289 53.3275 1.89716C46.0454 -0.398581 38.267 -0.615257 30.8684 1.27154C23.4698 3.15833 16.7451 7.07363 11.4518 12.5764C6.1585 18.0791 2.50695 24.9506 0.908504 32.4168C-0.689941 39.883 -0.171765 47.6472 2.40466 54.8347C4.98108 62.0223 9.51337 68.3476 15.491 73.0981C21.4686 77.8486 28.6539 80.8356 36.2376 81.7225C43.8213 82.6094 51.502 81.361 58.4144 78.1179L55.8023 72.5502C49.9267 75.3068 43.3981 76.368 36.952 75.6141C30.5058 74.8602 24.3983 72.3213 19.3173 68.2834C14.2364 64.2455 10.3839 58.8689 8.19396 52.7595C6.004 46.6501 5.56355 40.0505 6.92223 33.7042C8.2809 27.358 11.3847 21.5172 15.884 16.8399C20.3833 12.1626 26.0993 8.83458 32.3881 7.23081C38.6769 5.62703 45.2886 5.8112 51.4784 7.76258C57.6681 9.71396 63.19 13.355 67.422 18.2755L72.0847 14.2653Z" fill="#0A0038"/>
<path d="M53 70.5556V48H72V76H69.625V50.3333H55.375V60.4444V70.5556H53Z" fill="#0A0038" stroke="#0A0038"/>
<path d="M57.0355 45.0355C56.3363 45.7348 55.4454 46.211 54.4755 46.4039C53.5055 46.5969 52.5002 46.4978 51.5866 46.1194C50.673 45.741 49.8921 45.1001 49.3427 44.2779C48.7932 43.4556 48.5 42.4889 48.5 41.5C48.5 40.5111 48.7932 39.5444 49.3427 38.7221C49.8921 37.8999 50.673 37.259 51.5866 36.8806C52.5002 36.5022 53.5055 36.4031 54.4755 36.5961C55.4454 36.789 56.3363 37.2652 57.0355 37.9645L56.2249 38.7751C55.686 38.2361 54.9993 37.8691 54.2518 37.7204C53.5043 37.5717 52.7294 37.648 52.0253 37.9397C51.3211 38.2314 50.7193 38.7253 50.2958 39.359C49.8724 39.9928 49.6464 40.7378 49.6464 41.5C49.6464 42.2622 49.8724 43.0072 50.2958 43.641C50.7193 44.2747 51.3211 44.7686 52.0253 45.0603C52.7294 45.352 53.5043 45.4283 54.2518 45.2796C54.9993 45.1309 55.686 44.7639 56.2249 44.2249L57.0355 45.0355Z" fill="#0A0038"/>
<rect x="63" y="39" width="1" height="7" fill="#0A0038"/>
<rect x="73" y="39" width="1" height="7" fill="#0A0038"/>
<rect x="58" y="39" width="1" height="7" fill="#0A0038"/>
<rect x="58" y="42" width="-1" height="5" rx="-0.5" transform="rotate(-90 58 42)" fill="#0A0038"/>
<path d="M65 46L66.3081 42.9479M71 46L69.6801 42.9202M69.6801 42.9202L68 39L66.3081 42.9479M69.6801 42.9202L66.3081 42.9479" stroke="#0A0038"/>
<rect x="71" y="39" width="-1" height="5" rx="-0.5" transform="rotate(-90 71 39)" fill="#0A0038"/>
</svg>
